# xmcd
#
# Track frame offsets: 
#        150
#        17062
#        34308
#        56924
#        72353
#        88769
#        105379
#        125075
#        138902
#        153205
#
# Disc length: 2302 seconds
#
# Revision: 0
# Processed by: cddbd v1.5.2PL0 Copyright (c) Steve Scherf et al.
# Submitted via: ExactAudioCopy v0.99pb4
#
DISCID=8708fc0a
DTITLE=The Woodlands - The Woodlands
DYEAR=2009
DGENRE=Indie
TTITLE0=Until The Day Dims
TTITLE1=Can We Stay
TTITLE2=King And Queen
TTITLE3=Day To Day
TTITLE4=Anymore
TTITLE5=Summerland
TTITLE6=In The Dark On Monday
TTITLE7=On The Waves
TTITLE8=Asleep In September
TTITLE9=Through The Winter
EXTD=
EXTT0=
EXTT1=
EXTT2=
EXTT3=
EXTT4=
EXTT5=
EXTT6=
EXTT7=
EXTT8=
EXTT9=
PLAYORDER=
